<?xml version="1.0" encoding="UTF-8" standalone="no"?>
<svg
   version="1.2"
   width="52.42mm"
   height="71.25mm"
   viewBox="0 0 5242 7125"
   preserveAspectRatio="xMidYMid"
   fill-rule="evenodd"
   stroke-width="28.222"
   stroke-linejoin="round"
   xml:space="preserve"
   id="svg1946"
   sodipodi:docname="old-man-b.svg"
   inkscape:version="1.2.2 (732a01da63, 2022-12-09, custom)"
   xmlns:inkscape="http://www.inkscape.org/namespaces/inkscape"
   xmlns:sodipodi="http://sodipodi.sourceforge.net/DTD/sodipodi-0.dtd"
   xmlns="http://www.w3.org/2000/svg"
   xmlns:svg="http://www.w3.org/2000/svg"
   xmlns:ooo="http://xml.openoffice.org/svg/export"><sodipodi:namedview
   id="namedview1948"
   pagecolor="#ffffff"
   bordercolor="#000000"
   borderopacity="0.25"
   inkscape:showpageshadow="2"
   inkscape:pageopacity="0.0"
   inkscape:pagecheckerboard="0"
   inkscape:deskcolor="#d1d1d1"
   inkscape:document-units="mm"
   showgrid="false"
   inkscape:zoom="3.0747368"
   inkscape:cx="97.569326"
   inkscape:cy="134.64567"
   inkscape:window-width="1920"
   inkscape:window-height="1031"
   inkscape:window-x="0"
   inkscape:window-y="25"
   inkscape:window-maximized="1"
   inkscape:current-layer="layer1" />
 <defs
   class="ClipPathGroup"
   id="defs1797">
  <clipPath
   id="presentation_clip_path"
   clipPathUnits="userSpaceOnUse">
   <rect
   x="0"
   y="0"
   width="5242"
   height="7125"
   id="rect1791" />
  </clipPath>
  <clipPath
   id="presentation_clip_path_shrink"
   clipPathUnits="userSpaceOnUse">
   <rect
   x="5"
   y="7"
   width="5232"
   height="7111"
   id="rect1794" />
  </clipPath>
 </defs>
 <defs
   class="TextShapeIndex"
   id="defs1801">
  <g
   ooo:slide="id1"
   ooo:id-list="id3 id4 id5 id6 id7 id8 id9 id10 id11 id12 id13 id14 id15"
   id="g1799" />
 </defs>
 <defs
   class="EmbeddedBulletChars"
   id="defs1833">
  <g
   id="bullet-char-template-57356"
   transform="scale(0.00048828125,-0.00048828125)">
   <path
   d="M 580,1141 L 1163,571 580,0 -4,571 580,1141 Z"
   id="path1803" />
  </g>
  <g
   id="bullet-char-template-57354"
   transform="scale(0.00048828125,-0.00048828125)">
   <path
   d="M 8,1128 L 1137,1128 1137,0 8,0 8,1128 Z"
   id="path1806" />
  </g>
  <g
   id="bullet-char-template-10146"
   transform="scale(0.00048828125,-0.00048828125)">
   <path
   d="M 174,0 L 602,739 174,1481 1456,739 174,0 Z M 1358,739 L 309,1346 659,739 1358,739 Z"
   id="path1809" />
  </g>
  <g
   id="bullet-char-template-10132"
   transform="scale(0.00048828125,-0.00048828125)">
   <path
   d="M 2015,739 L 1276,0 717,0 1260,543 174,543 174,936 1260,936 717,1481 1274,1481 2015,739 Z"
   id="path1812" />
  </g>
  <g
   id="bullet-char-template-10007"
   transform="scale(0.00048828125,-0.00048828125)">
   <path
   d="M 0,-2 C -7,14 -16,27 -25,37 L 356,567 C 262,823 215,952 215,954 215,979 228,992 255,992 264,992 276,990 289,987 310,991 331,999 354,1012 L 381,999 492,748 772,1049 836,1024 860,1049 C 881,1039 901,1025 922,1006 886,937 835,863 770,784 769,783 710,716 594,584 L 774,223 C 774,196 753,168 711,139 L 727,119 C 717,90 699,76 672,76 641,76 570,178 457,381 L 164,-76 C 142,-110 111,-127 72,-127 30,-127 9,-110 8,-76 1,-67 -2,-52 -2,-32 -2,-23 -1,-13 0,-2 Z"
   id="path1815" />
  </g>
  <g
   id="bullet-char-template-10004"
   transform="scale(0.00048828125,-0.00048828125)">
   <path
   d="M 285,-33 C 182,-33 111,30 74,156 52,228 41,333 41,471 41,549 55,616 82,672 116,743 169,778 240,778 293,778 328,747 346,684 L 369,508 C 377,444 397,411 428,410 L 1163,1116 C 1174,1127 1196,1133 1229,1133 1271,1133 1292,1118 1292,1087 L 1292,965 C 1292,929 1282,901 1262,881 L 442,47 C 390,-6 338,-33 285,-33 Z"
   id="path1818" />
  </g>
  <g
   id="bullet-char-template-9679"
   transform="scale(0.00048828125,-0.00048828125)">
   <path
   d="M 813,0 C 632,0 489,54 383,161 276,268 223,411 223,592 223,773 276,916 383,1023 489,1130 632,1184 813,1184 992,1184 1136,1130 1245,1023 1353,916 1407,772 1407,592 1407,412 1353,268 1245,161 1136,54 992,0 813,0 Z"
   id="path1821" />
  </g>
  <g
   id="bullet-char-template-8226"
   transform="scale(0.00048828125,-0.00048828125)">
   <path
   d="M 346,457 C 273,457 209,483 155,535 101,586 74,649 74,723 74,796 101,859 155,911 209,963 273,989 346,989 419,989 480,963 531,910 582,859 608,796 608,723 608,648 583,586 532,535 482,483 420,457 346,457 Z"
   id="path1824" />
  </g>
  <g
   id="bullet-char-template-8211"
   transform="scale(0.00048828125,-0.00048828125)">
   <path
   d="M -4,459 L 1135,459 1135,606 -4,606 -4,459 Z"
   id="path1827" />
  </g>
  <g
   id="bullet-char-template-61548"
   transform="scale(0.00048828125,-0.00048828125)">
   <path
   d="M 173,740 C 173,903 231,1043 346,1159 462,1274 601,1332 765,1332 928,1332 1067,1274 1183,1159 1299,1043 1357,903 1357,740 1357,577 1299,437 1183,322 1067,206 928,148 765,148 601,148 462,206 346,322 231,437 173,577 173,740 Z"
   id="path1830" />
  </g>
 </defs>
 
 <g
   inkscape:groupmode="layer"
   id="layer1"
   inkscape:label="Layer 1"><path
     fill="rgb(255,219,182)"
     stroke="none"
     d="M 1002,2752 L 888,2638 1030,2414 1246,2194 1372,2044 1384,1946 1388,1730 1555,1466 1771,1270 2093,1319 2597,1502 2829,1669 2854,1840 2846,1950 2728,2121 2667,2349 2658,2455 2569,2488 2512,2630 2447,2728 2312,2821 2284,2923 2251,3021 2072,3029 1999,3013 1812,3057 1527,2960 1441,2943 1425,2878 1002,2752 Z"
     id="path1842" /><path
     fill="rgb(255,219,182)"
     stroke="none"
     d="M 1543,4161 L 1523,4299 1441,4637 1494,4966 1759,5097 2288,5080 2691,4865 2976,4596 3175,4340 3228,3884 3159,3489 3131,3192 3094,3163 2964,3175 2878,3216 2878,3627 2772,3888 2671,3961 2601,3998 2540,3998 2443,4022 2378,4079 2235,4055 2076,4124 1991,4091 1905,4063 1543,4161 Z"
     id="path1849" /><path
     fill="rgb(184,92,0)"
     stroke="none"
     d="M 2813,1941 L 2721,2097 2685,2139 2651,2314 2646,2431 2576,2451 2520,2579 2454,2690 2401,2727 2323,2774 2250,2905 2200,2974 2206,3005 2080,3005 1958,2974 1774,3022 1445,2894 1437,2852 1184,2768 1061,2819 1011,2897 975,3016 1033,3130 1161,3245 1125,3356 1100,3618 905,3718 805,3838 766,4036 782,4158 841,4161 1203,4178 1412,4131 1573,4136 1827,4094 1974,4072 2025,4108 2211,4083 2373,4086 2540,3986 2618,4000 2829,3782 2921,3406 2958,3217 3130,3170 3158,3518 3233,3813 3270,3938 3593,3952 3894,3891 4016,3735 4016,3548 3974,3315 3782,3036 3495,2624 3303,2293 3108,1978 3025,1825 2877,1705 2816,1794 2813,1941 Z"
     id="path1856" /><path
     fill="rgb(255,219,182)"
     stroke="none"
     d="M 2851,2694 L 2975,2462 3148,2408 3265,2435 3383,2536 3399,2695 3338,2899 3216,3070 3094,3155 3004,3184 2911,3188 2837,3123 2817,3005 2851,2694 Z"
     id="path1863" /><path
     fill="rgb(42,96,153)"
     stroke="none"
     d="M 2619,432 L 3170,251 3942,296 4617,618 4965,1120 5181,1698 5181,2121 5093,2209 4815,2064 4599,1694 4343,1610 4105,1544 4074,1848 3990,2214 3915,2351 3774,2254 3183,1416 2619,432 Z"
     id="path1870" /><path
     fill="rgb(89,131,176)"
     stroke="none"
     d="M 1848,1279 L 2170,1332 2532,1477 2929,1733 3114,1945 3277,2245 3475,2606 3661,2897 3930,3255 4013,3343 4445,3272 4745,3180 4476,2937 3912,2408 3506,1870 2633,577 2320,335 1967,66 1861,52 1773,251 1689,520 1645,608 1539,507 1226,198 1134,224 1156,639 1187,1080 1288,1362 1345,1486 1447,1600 1733,1300 1848,1279 Z"
     id="path1877" /><path
     fill="rgb(255,0,0)"
     stroke="none"
     d="M 2271,6199 L 2011,5702 1738,5303 1510,5303 1242,5491 981,5698 981,5483 1095,4815 1246,4379 839,4583 419,4933 73,5255 513,6097 1258,6663 2206,7050 3191,7009 4295,6504 4991,5751 4991,5503 4441,4917 4026,4526 3652,4245 3574,4343 3481,4811 3228,5251 2911,5645 2801,5772 2271,6199 Z"
     id="path1884" /><path
     fill="rgb(255,191,0)"
     stroke="none"
     d="M 1445,6146 L 1518,6189 1520,6288 1489,6377 1409,6398 1308,6396 1279,6336 1342,6172 1340,6170 1378,6163 1445,6146 Z"
     id="path1891" /><path
     fill="rgb(255,191,0)"
     stroke="none"
     d="M 1652,5583 L 1725,5626 1727,5725 1696,5814 1616,5835 1515,5833 1486,5773 1549,5609 1547,5607 1585,5600 1652,5583 Z"
     id="path1898" /><path
     fill="rgb(191,0,65)"
     stroke="none"
     d="M 1351,4164 L 1461,4107 1531,4156 1486,4440 1486,4839 1636,5059 1714,5124 1612,5275 1360,5405 1091,5609 1014,5645 953,5466 1026,5071 1099,4742 1242,4383 1351,4164 Z"
     id="path1905" /><path
     fill="rgb(191,0,65)"
     stroke="none"
     d="M 1677,5274 L 1978,5650 2228,6168 2412,6067 2971,5617 3280,5208 3522,4623 3572,4164 3538,4006 3397,3981 3213,4006 3208,4144 3147,4372 3004,4584 2813,4767 2532,4922 2109,5084 1710,5105 1677,5274 Z"
     id="path1912" /><path
     fill="rgb(222,230,239)"
     stroke="none"
     d="M 1804,2101 L 1869,2357 2023,2317 2110,2268 2119,2260 2105,2229 2006,2156 1916,2108 1804,2101 Z"
     id="path1919" /><path
     fill="rgb(0,0,0)"
     stroke="none"
     d="M 658,6313 C 431,6086 151,5685 87,5493 66,5430 33,5358 13,5334 -26,5284 9,5236 270,4983 417,4840 973,4454 1194,4341 1428,4222 1302,4176 835,4208 753,4214 746,4202 735,4042 726,3894 738,3856 824,3766 878,3708 966,3639 1020,3611 1106,3566 1117,3540 1117,3384 1117,3258 1101,3201 1063,3186 963,3148 935,3044 989,2914 1037,2799 1036,2792 955,2755 901,2731 870,2687 870,2637 871,2545 1035,2326 1235,2151 1366,2036 1370,2025 1349,1865 1337,1773 1340,1689 1357,1679 1373,1669 1335,1553 1271,1421 1181,1233 1149,1108 1123,846 1091,517 1105,70 1147,70 1158,70 1274,175 1403,303 L 1638,537 1694,347 C 1755,138 1839,-1 1904,0 1927,0 2061,87 2202,193 L 2458,386 2643,302 C 2923,175 3205,129 3531,157 4236,218 4748,540 5032,1101 5196,1425 5272,1807 5229,2089 5206,2244 5196,2257 5103,2257 4957,2257 4714,2057 4598,1841 4521,1699 4479,1657 4415,1657 4369,1657 4290,1642 4241,1623 4151,1589 4150,1591 4150,1757 4150,1854 4112,2022 4062,2152 L 3973,2377 4141,2552 C 4417,2839 4475,2888 4704,3023 4824,3094 4914,3164 4905,3179 4877,3225 4430,3352 4218,3374 L 4020,3394 4036,3561 C 4045,3653 4035,3761 4013,3801 3967,3888 3784,3985 3668,3985 3545,3985 3555,4141 3683,4219 4139,4494 4424,4730 4732,5085 4944,5329 4973,5367 5062,5511 L 5143,5643 5064,5775 C 4680,6412 4026,6890 3296,7067 2967,7147 2270,7142 1963,7057 1430,6909 1020,6675 658,6313 Z M 4768,5869 L 4896,5677 4816,5548 C 4703,5365 4441,5057 4218,4844 4006,4641 3686,4373 3656,4373 3646,4373 3618,4473 3595,4595 3494,5130 3197,5535 2502,6089 2372,6193 2251,6274 2235,6269 2219,6263 2169,6167 2123,6056 1970,5679 1660,5298 1575,5383 1538,5419 1258,6161 1258,6220 1258,6241 1283,6223 1313,6180 1412,6038 1575,6101 1575,6283 1575,6481 1291,6538 1263,6346 1252,6269 1247,6272 1201,6382 1143,6519 1134,6509 1434,6663 1604,6750 1943,6873 2157,6926 2196,6935 2442,6940 2704,6935 3091,6929 3230,6911 3445,6844 3950,6684 4492,6285 4768,5869 Z M 1485,5805 C 1443,5640 1619,5478 1736,5574 1854,5672 1767,5890 1610,5890 1530,5890 1501,5871 1485,5805 Z M 1544,5685 C 1504,5789 1527,5826 1623,5813 1677,5805 1699,5777 1699,5714 1699,5596 1586,5574 1544,5685 Z M 1165,6163 C 1220,6023 1303,5808 1350,5686 L 1434,5465 1337,5526 C 1284,5559 1173,5640 1090,5705 L 940,5824 940,5524 C 940,5182 982,4954 1098,4657 L 1179,4451 974,4592 C 861,4669 639,4853 481,5000 148,5309 148,5313 363,5682 485,5892 965,6419 1034,6419 1050,6419 1109,6304 1165,6163 Z M 1487,6278 C 1487,6145 1350,6155 1335,6290 1325,6376 1334,6388 1405,6378 1466,6369 1487,6343 1487,6278 Z M 2408,6024 C 2681,5815 2974,5537 3118,5349 3400,4983 3557,4475 3494,4135 3475,4037 3457,4021 3370,4021 3292,4021 3268,4037 3268,4090 3268,4222 3100,4540 2946,4698 2775,4874 2426,5090 2221,5147 2147,5167 2011,5184 1919,5184 L 1751,5185 1846,5291 C 1970,5430 2075,5619 2179,5885 2225,6004 2273,6102 2285,6102 2297,6102 2352,6067 2408,6024 L 2408,6024 Z M 1488,5247 C 1636,5175 1692,5114 1609,5114 1589,5114 1533,5075 1485,5027 1411,4953 1399,4909 1400,4719 1401,4597 1425,4433 1453,4356 1517,4178 1517,4162 1452,4162 1423,4162 1399,4178 1399,4199 1399,4219 1366,4302 1326,4384 1152,4737 1046,5136 1046,5442 L 1046,5581 1189,5452 C 1267,5381 1402,5289 1488,5247 Z M 2475,4921 C 3089,4622 3297,4233 3145,3668 3116,3561 3093,3406 3092,3323 3092,3183 3086,3174 3023,3209 2981,3231 2962,3267 2974,3300 2986,3329 2974,3452 2949,3573 2914,3744 2877,3817 2781,3909 2710,3976 2633,4019 2599,4010 2566,4002 2510,4017 2474,4043 2321,4155 2323,4079 2476,3940 2619,3810 2650,3759 2688,3578 L 2733,3368 2736,3568 C 2739,3734 2724,3787 2648,3877 2544,4000 2584,4028 2691,3906 2823,3755 2854,3652 2828,3452 2787,3138 2792,2773 2837,2698 2872,2639 2876,2661 2858,2826 2839,2997 2846,3034 2911,3098 2973,3160 3001,3167 3080,3136 3193,3094 3263,3004 3348,2794 3418,2620 3397,2547 3251,2469 3179,2430 3136,2428 3055,2458 2998,2480 2951,2484 2951,2466 2951,2417 3173,2369 3242,2404 3314,2441 3316,2435 3266,2303 3232,2215 3224,2211 3193,2266 3105,2423 2994,2264 3031,2034 3044,1954 3030,1896 2983,1838 2919,1759 2916,1759 2916,1827 2916,1866 2929,1904 2946,1910 2978,1923 3027,2363 2995,2363 2985,2363 2956,2335 2932,2302 2893,2248 2889,2254 2903,2346 2918,2437 2914,2442 2879,2385 2856,2349 2825,2176 2811,2000 2780,1632 2760,1604 2429,1480 2191,1390 2144,1378 1908,1351 L 1729,1331 1560,1529 C 1408,1708 1393,1739 1414,1850 1442,2002 1420,2044 1171,2305 909,2580 883,2631 980,2682 1025,2706 1064,2709 1077,2690 1123,2622 1234,2609 1316,2663 1436,2741 1418,2794 1295,2723 1191,2664 1091,2691 1188,2752 1234,2781 1234,2785 1187,2785 1149,2786 1132,2833 1124,2957 1114,3127 1155,3205 1265,3222 1290,3226 1331,3241 1355,3256 1416,3294 1410,3266 1328,3113 1290,3040 1258,2950 1258,2912 1258,2872 1297,2921 1349,3026 1520,3369 1916,3627 2125,3532 2198,3499 2213,3499 2202,3535 2169,3633 2012,3647 1828,3568 1607,3473 1611,3473 1611,3581 1611,3680 1526,3828 1453,3856 1424,3868 1438,3818 1490,3727 1590,3553 1596,3467 1517,3380 1434,3288 1412,3299 1419,3430 1423,3512 1420,3518 1410,3451 1398,3374 1373,3355 1271,3343 1161,3330 1150,3336 1166,3402 1194,3512 1153,3627 1077,3651 1041,3663 963,3713 905,3762 816,3836 799,3876 799,4010 799,4148 808,4166 861,4144 895,4131 970,4112 1029,4103 1087,4094 1177,4056 1230,4018 1372,3917 1390,3935 1273,4061 1199,4141 1188,4166 1235,4149 1360,4104 1502,3967 1577,3818 1663,3646 1738,3578 1698,3707 1648,3872 1582,4012 1544,4036 1478,4077 1501,4123 1579,4108 1698,4085 1999,3829 1999,3751 1999,3727 2014,3697 2034,3685 2099,3645 2070,3763 1982,3892 1926,3975 1911,4021 1940,4021 2005,4021 2162,3846 2243,3684 2283,3604 2314,3571 2315,3607 2317,3725 2219,3903 2100,3997 2005,4071 1995,4090 2048,4091 2160,4091 2353,3916 2430,3743 2478,3636 2508,3600 2518,3639 2566,3840 2149,4237 2010,4122 1972,4090 1950,4090 1919,4121 1897,4143 1816,4162 1738,4162 L 1598,4162 1684,4253 C 1731,4304 1837,4384 1919,4433 2002,4481 2069,4529 2069,4538 2069,4547 2029,4606 1981,4670 1932,4734 1893,4804 1893,4826 1893,4849 1877,4867 1857,4867 1838,4867 1822,4852 1822,4833 1822,4775 1903,4620 1934,4620 1950,4620 1963,4596 1963,4567 1963,4538 1949,4514 1932,4514 1914,4514 1820,4460 1722,4394 L 1543,4274 1520,4432 C 1431,5022 1840,5231 2475,4921 Z M 945,3887 C 982,3811 1052,3728 1101,3702 1153,3674 1204,3601 1229,3520 1278,3354 1306,3368 1274,3542 1257,3629 1221,3685 1160,3717 1111,3743 1045,3816 1014,3881 983,3945 940,4004 917,4011 894,4018 906,3965 945,3887 Z M 1387,3609 C 1400,3621 1431,3614 1457,3593 1493,3563 1505,3566 1505,3604 1505,3631 1449,3708 1381,3774 1313,3839 1258,3877 1258,3857 1258,3836 1290,3791 1328,3756 1367,3721 1398,3675 1398,3654 1397,3632 1317,3702 1220,3809 1071,3973 1055,3984 1115,3877 1200,3728 1354,3576 1387,3609 Z M 1865,3672 C 1875,3699 1872,3752 1857,3791 1828,3869 1680,4015 1683,3964 1687,3885 1847,3626 1865,3672 Z M 2416,3387 C 2426,3200 2416,3117 2373,3052 2309,2954 2303,2927 2345,2927 2398,2927 2528,3232 2527,3354 2526,3420 2498,3510 2464,3555 2403,3634 2402,3630 2416,3387 Z M 1624,3291 C 1589,3237 1509,3132 1445,3059 1381,2986 1328,2911 1328,2891 1328,2871 1388,2921 1461,3002 1786,3363 1852,3421 1933,3421 1979,3422 2040,3437 2069,3456 2154,3511 1931,3498 1798,3440 1737,3413 1658,3346 1624,3291 Z M 2316,3349 C 2316,3290 2285,3181 2248,3108 2180,2975 2180,2973 2250,2858 2330,2725 2374,2732 2312,2869 2278,2943 2281,2989 2328,3112 2393,3283 2405,3456 2351,3456 2332,3456 2316,3408 2316,3349 Z M 1797,3017 C 1861,3036 2175,3333 2175,3374 2175,3380 2155,3385 2131,3384 2107,3384 2004,3296 1903,3189 1769,3046 1741,3000 1797,3017 Z M 1662,3121 C 1535,2995 1444,2892 1460,2892 1503,2892 1752,3067 1752,3097 1752,3111 1798,3174 1855,3237 2043,3442 1897,3355 1662,3121 Z M 2150,3223 C 2115,3172 2047,3090 1999,3041 1931,2972 1925,2956 1975,2974 2010,2987 2054,2998 2071,2998 2089,2998 2127,3053 2155,3121 2183,3189 2223,3245 2244,3245 2264,3245 2281,3260 2281,3280 2281,3345 2214,3316 2150,3223 Z M 2452,2966 C 2373,2865 2368,2739 2439,2668 2468,2638 2492,2601 2492,2584 2492,2566 2515,2522 2543,2484 2589,2422 2591,2429 2573,2565 2560,2670 2571,2740 2611,2802 2643,2850 2667,2949 2664,3023 2661,3136 2657,3143 2636,3068 2623,3020 2579,2910 2538,2825 2482,2707 2460,2686 2448,2737 2440,2774 2471,2872 2518,2955 2565,3038 2597,3133 2590,3167 2579,3213 2570,3206 2547,3139 2531,3090 2488,3013 2452,2966 Z M 1173,2922 C 1198,2850 1205,2859 1225,2998 1253,3187 1248,3200 1189,3090 1161,3037 1155,2975 1173,2922 Z M 2675,2795 C 2629,2678 2624,2638 2629,2435 2636,2186 2694,2314 2712,2618 2721,2769 2725,2892 2721,2892 2716,2892 2695,2848 2675,2795 Z M 1503,2677 C 1461,2599 1463,2596 1518,2642 1597,2707 1578,2835 1487,2850 1419,2862 1419,2861 1483,2813 1540,2769 1543,2752 1503,2677 Z M 2977,2835 C 3040,2807 3032,2727 2963,2701 2912,2681 2915,2668 2987,2591 3124,2445 3340,2507 3338,2691 3337,2768 3337,2768 3272,2683 3191,2578 3101,2605 3086,2739 3078,2807 3052,2841 3004,2847 2965,2851 2953,2846 2977,2835 Z M 2739,2305 C 2739,2220 2722,2151 2702,2151 2681,2151 2674,2135 2686,2116 2737,2034 2770,2094 2793,2303 2806,2425 2811,2564 2803,2611 2792,2688 2787,2684 2765,2579 2751,2513 2739,2390 2739,2305 Z M 1770,2364 C 1639,2229 1636,2221 1695,2156 1730,2117 1740,2082 1719,2075 1699,2068 1729,2036 1786,2004 1885,1947 1895,1948 2006,2022 2215,2163 2160,2362 1912,2363 L 1805,2364 1893,2433 C 1941,2471 1964,2503 1944,2503 1924,2503 1845,2441 1770,2364 L 1770,2364 Z M 2112,2256 L 2023,2186 C 1924,2107 1805,2091 1837,2160 1848,2184 1867,2232 1879,2266 1905,2338 1898,2337 2018,2291 L 2112,2256 Z M 1847,1999 C 1829,2010 1876,2047 1951,2082 2113,2158 2104,2154 2104,2137 2104,2104 1875,1981 1847,1999 Z M 2264,2011 C 2122,1786 1881,1698 1746,1821 1687,1875 1681,1875 1681,1823 1681,1694 1889,1658 2097,1751 2169,1783 2248,1806 2273,1802 2298,1798 2341,1851 2370,1919 2398,1987 2465,2067 2519,2096 2584,2131 2597,2149 2556,2150 2523,2150 2487,2135 2475,2116 2463,2096 2437,2080 2418,2080 2398,2080 2392,2096 2404,2116 2416,2135 2409,2151 2389,2151 2369,2151 2312,2088 2264,2011 Z M 2257,1846 C 2248,1855 2266,1913 2298,1975 2330,2036 2363,2080 2372,2072 2380,2063 2361,2005 2330,1943 2299,1880 2266,1837 2257,1846 Z M 1856,1887 C 1817,1899 1787,1892 1787,1871 1787,1824 1981,1822 2066,1867 2101,1886 2156,1942 2188,1991 2253,2090 2244,2111 2173,2025 2100,1937 1930,1863 1856,1887 Z M 1736,1641 C 1829,1597 1875,1590 1903,1619 1931,1647 1923,1657 1872,1657 1748,1657 1638,1761 1661,1855 1685,1949 1642,1966 1577,1889 1516,1815 1581,1714 1736,1641 Z M 3479,3740 C 3518,3598 3486,3451 3408,3402 3378,3384 3375,3400 3396,3461 3412,3507 3425,3592 3425,3650 3425,3708 3412,3794 3396,3840 3376,3897 3379,3916 3405,3900 3426,3887 3459,3815 3479,3740 Z M 3610,3655 C 3599,3575 3580,3469 3567,3421 3554,3372 3586,3410 3638,3505 3711,3636 3728,3706 3713,3804 3699,3897 3702,3913 3725,3862 3781,3739 3764,3549 3687,3422 3631,3330 3627,3312 3672,3348 3760,3422 3809,3526 3838,3703 L 3864,3862 3854,3681 C 3847,3551 3815,3458 3740,3346 3578,3106 3559,3029 3693,3156 3835,3292 3945,3506 3949,3657 3952,3750 3960,3762 3985,3716 4040,3618 3919,3322 3691,2999 3497,2725 3480,2709 3480,2808 3480,2867 3503,2993 3532,3087 3560,3182 3576,3266 3567,3275 3539,3303 3445,3038 3445,2928 3445,2869 3429,2821 3409,2821 3364,2821 3364,3071 3408,3189 3429,3242 3429,3280 3411,3280 3393,3280 3359,3225 3334,3158 3300,3063 3280,3044 3244,3074 3185,3123 3180,3582 3239,3618 3268,3637 3274,3597 3259,3470 L 3238,3297 3293,3451 C 3336,3572 3338,3623 3306,3693 3261,3793 3288,3853 3342,3773 3376,3723 3367,3570 3320,3386 3305,3325 3308,3312 3331,3345 3349,3370 3374,3390 3387,3389 3456,3379 3477,3397 3532,3511 3573,3599 3585,3681 3569,3785 3551,3905 3555,3920 3588,3866 3612,3828 3621,3739 3610,3655 L 3610,3655 Z M 4654,3162 L 4499,3090 C 4285,2989 3784,2476 3548,2116 3255,1669 3023,1307 2845,1017 2638,680 2461,488 2157,274 L 1910,100 1842,253 C 1802,341 1775,476 1777,573 1779,665 1766,740 1749,740 1732,740 1605,634 1468,504 L 1218,268 1225,548 C 1235,885 1303,1196 1407,1382 L 1484,1518 1622,1357 C 1758,1198 1762,1196 1923,1220 2532,1310 3050,1683 3301,2210 3460,2544 3945,3275 4009,3278 4038,3279 4195,3253 4358,3221 L 4654,3162 Z M 1075,2995 C 1080,2929 1069,2895 1047,2909 1006,2934 998,3044 1034,3080 1067,3112 1066,3116 1075,2995 Z M 3119,2145 C 3099,2165 3092,2206 3104,2237 3134,2314 3144,2306 3150,2200 3154,2137 3144,2120 3119,2145 Z M 4015,1519 C 3971,1391 3965,1394 4118,1470 4196,1509 4327,1530 4494,1532 4677,1533 4750,1547 4750,1579 4750,1604 4728,1633 4701,1643 4603,1680 4792,1975 4974,2069 5133,2152 5158,2096 5115,1754 4984,694 4029,91 2952,389 2809,429 2678,470 2661,480 2637,495 2867,810 2954,881 2978,901 3115,1105 3553,1772 3715,2019 3860,2222 3875,2222 3889,2222 3927,2172 3958,2112 4033,1967 4063,1656 4015,1519 Z M 2950,1992 C 2950,1934 2944,1931 2916,1975 2897,2004 2881,2059 2881,2098 2881,2157 2887,2160 2916,2116 2934,2087 2950,2031 2950,1992 Z"
     id="path1931" /></g>
</svg>
